<svg xmlns="http://www.w3.org/2000/svg" viewBox="0 0 512 512">
  <defs>
    <linearGradient id="shell" x1="72" x2="440" y1="56" y2="456" gradientUnits="userSpaceOnUse">
      <stop offset="0" stop-color="#20262e"/>
      <stop offset="1" stop-color="#111418"/>
    </linearGradient>
    <clipPath id="window-clip">
      <rect x="112" y="104" width="288" height="304" rx="34"/>
    </clipPath>
  </defs>
  <rect width="512" height="512" rx="112" fill="#15181d"/>
  <rect x="48" y="48" width="416" height="416" rx="92" fill="url(#shell)"/>
  <rect x="64" y="64" width="384" height="384" rx="82" fill="none" stroke="#4e9f8f" stroke-width="18"/>
  <g clip-path="url(#window-clip)">
    <rect x="112" y="104" width="288" height="304" fill="#f4f6f8"/>
    <rect x="112" y="104" width="72" height="304" fill="#263240"/>
    <circle cx="148" cy="150" r="11" fill="#4e9f8f"/>
    <circle cx="148" cy="198" r="11" fill="#e6c27a"/>
    <circle cx="148" cy="246" r="11" fill="#d6a5dd"/>
    <rect x="216" y="150" width="116" height="22" rx="11" fill="#263240"/>
    <rect x="216" y="202" width="148" height="22" rx="11" fill="#26776d"/>
    <rect x="216" y="254" width="98" height="22" rx="11" fill="#b45309"/>
    <rect x="216" y="306" width="132" height="22" rx="11" fill="#526173"/>
    <path
      d="M280 355 330 256 280 157"
      fill="none"
      stroke="#111418"
      stroke-linecap="round"
      stroke-linejoin="round"
      stroke-width="28"
    />
  </g>
  <rect x="112" y="104" width="288" height="304" rx="34" fill="none" stroke="#cad3de" stroke-width="10"/>
</svg>
